<svg width="46" height="39" viewBox="0 0 46 39" fill="none" xmlns="http://www.w3.org/2000/svg">
<g clip-path="url(#clip0_46_932)">
<path d="M46.0253 27.178H40.3291V38.7204H46.0253V27.178Z" fill="white"/>
<path d="M38.4804 0.152588H32.7842V11.695H38.4804V0.152588Z" fill="white"/>
<path d="M7.06311 39C5.62007 39 4.58209 38.517 3.92387 37.5255C3.26564 36.5339 2.93652 35.0848 2.93652 33.1526V27.178H8.60741V33.0255C8.60741 33.7373 8.68336 34.2458 8.80994 34.5763C8.93652 34.9068 9.215 35.0594 9.59475 35.0594C9.99981 35.0594 10.2783 34.856 10.3796 34.4492C10.5061 34.0424 10.5568 33.4068 10.5568 32.517V27.1526H15.8985V38.695H10.1011V38.339C10.7593 37.7034 11.215 36.8645 11.4682 35.8221C11.7213 34.7797 11.8479 33.4831 11.8479 31.9068H11.2403C11.2403 32.6441 11.1897 33.4322 11.0884 34.2712C10.9872 35.1102 10.7846 35.8729 10.4808 36.5848C10.177 37.2712 9.74665 37.856 9.18969 38.3136C8.65804 38.7712 7.94918 39 7.06311 39Z" fill="white"/>
<path d="M21.9488 25.4238C20.5058 25.4238 19.4678 24.9408 18.8096 23.9492C18.1514 22.9577 17.8223 21.5086 17.8223 19.5763V13.6272H23.4932V19.4747C23.4932 20.1865 23.5691 20.695 23.6957 21.0255C23.8223 21.356 24.1007 21.5086 24.4805 21.5086C24.8856 21.5086 25.164 21.3052 25.2653 20.8984C25.3919 20.4916 25.4425 19.856 25.4425 18.9662V13.6272H30.7843V25.1696H25.0121V24.8136C25.6704 24.178 26.1261 23.3391 26.3792 22.2967C26.6324 21.2543 26.759 19.9577 26.759 18.3814H26.1514C26.1514 19.1187 26.1007 19.9069 25.9995 20.7458C25.8982 21.5848 25.6957 22.3475 25.3919 23.0594C25.0881 23.7458 24.6577 24.3306 24.1007 24.7882C23.5691 25.195 22.8349 25.4238 21.9488 25.4238Z" fill="white"/>
<path d="M7.92396 31.0931C6.45561 31.0931 5.11384 30.9406 3.89865 30.6355C2.68346 30.3304 1.54422 29.8728 0.506243 29.288L0.303711 29.1863L1.9746 24.9151L2.22776 25.0677C2.70877 25.3473 3.26574 25.6016 3.89865 25.8558C4.50624 26.0846 5.16447 26.2117 5.87333 26.2117C6.63283 26.2117 7.29105 26.11 7.84801 25.8812C8.40498 25.6524 8.88599 25.3473 9.29105 24.966C9.69612 24.5846 10.0252 24.1524 10.2784 23.6439C10.5316 23.1355 10.7341 22.5761 10.886 21.9914C11.0379 21.4067 11.1392 20.7965 11.1898 20.1863C11.2404 19.6778 11.2657 19.1694 11.2657 18.6863H11.1392C11.1138 19.3728 11.0379 20.0846 10.9113 20.8473C10.7594 21.6863 10.4809 22.4745 10.1012 23.1863C9.72143 23.8982 9.18979 24.5083 8.55688 24.966C7.89865 25.449 7.0632 25.6778 6.07586 25.6778C4.48093 25.6778 3.2151 25.1439 2.30371 24.0507C1.39232 22.9829 0.936622 21.4575 0.936622 19.4999C0.936622 18.4829 1.08852 17.5677 1.367 16.7795C1.6708 15.9914 2.05055 15.3304 2.50624 14.8219C2.98726 14.288 3.5189 13.8812 4.1265 13.627C4.73409 13.3728 5.34169 13.2202 5.94928 13.2202C6.65814 13.2202 7.26574 13.2965 7.77207 13.4236C8.27839 13.5507 8.73409 13.7541 9.08852 14.0084C9.44295 14.2626 9.77207 14.5422 9.99991 14.8728C10.2024 15.1524 10.405 15.4575 10.5569 15.7626H10.6328C10.6075 15.6609 10.5569 15.5592 10.5062 15.4067C10.3797 15.1016 10.1771 14.7965 9.89865 14.4914L9.8227 14.4151V13.3728H16.0759L16.1012 18.8134C16.1012 20.7456 15.9493 22.4999 15.6708 23.9999C15.3923 25.5253 14.9113 26.8219 14.2784 27.8643C13.6202 28.9067 12.7594 29.7202 11.7214 30.2795C10.6835 30.8134 9.41763 31.0931 7.92396 31.0931Z" fill="white"/>
<path d="M5.94937 13.4491C6.63291 13.4491 7.21519 13.5254 7.72152 13.6525C8.20253 13.7797 8.63291 13.9576 8.96203 14.1864C9.31646 14.4152 9.59494 14.6949 9.82278 15C10.0506 15.3051 10.2532 15.6356 10.4304 15.9915H10.9367C10.9367 15.8644 10.8608 15.6102 10.7342 15.2797C10.6076 14.9491 10.3797 14.6186 10.0759 14.2881V13.6017H15.8228L15.8481 18.8136C15.8481 20.7458 15.6962 22.4746 15.4177 23.9491C15.1392 25.4491 14.6835 26.6949 14.0506 27.7119C13.4177 28.7288 12.6076 29.4915 11.5949 30.0254C10.5823 30.5593 9.36709 30.8136 7.89873 30.8136C6.4557 30.8136 5.11392 30.661 3.92405 30.3559C2.73418 30.0508 1.62025 29.6186 0.607595 29.0339L2.07595 25.2458C2.55696 25.5254 3.13924 25.7797 3.77215 26.0339C4.40506 26.2881 5.11392 26.4153 5.8481 26.4153C6.63291 26.4153 7.34177 26.2881 7.92405 26.0593C8.50633 25.8305 9.01266 25.5 9.44304 25.0932C9.87342 24.6864 10.2025 24.2288 10.481 23.6949C10.7595 23.161 10.962 22.6017 11.1139 21.9915C11.2658 21.3814 11.3671 20.7712 11.443 20.161C11.4937 19.5508 11.5443 18.9407 11.5443 18.3814H10.8861C10.8861 19.1441 10.8101 19.9322 10.6582 20.7458C10.5063 21.6102 10.2278 22.3729 9.87342 23.0593C9.51899 23.7458 9.01266 24.3051 8.40506 24.7627C7.79747 25.2203 7.01266 25.4237 6.07595 25.4237C4.55696 25.4237 3.36709 24.9152 2.50633 23.8983C1.64557 22.8814 1.18987 21.4068 1.18987 19.5C1.18987 18.5085 1.34177 17.6186 1.62025 16.8814C1.89873 16.1186 2.27848 15.5085 2.70886 15C3.16456 14.4915 3.67089 14.1102 4.25316 13.8559C4.81013 13.5763 5.39241 13.4491 5.94937 13.4491ZM5.94937 12.9407C5.31646 12.9407 4.68354 13.0932 4.02532 13.3729C3.39241 13.6525 2.81013 14.0847 2.3038 14.6441C1.82278 15.2034 1.41772 15.8898 1.11392 16.7034C0.810127 17.5169 0.658228 18.4576 0.658228 19.5C0.658228 21.5085 1.13924 23.1102 2.07595 24.2288C3.03797 25.3729 4.37975 25.9322 6.05063 25.9322C6.27848 25.9322 6.48101 25.9322 6.68354 25.9068C6.43038 25.9322 6.12658 25.9576 5.8481 25.9576C5.18987 25.9576 4.55696 25.8305 3.97468 25.6017C3.36709 25.3475 2.81013 25.0932 2.32911 24.839L1.82278 24.5593L1.62025 25.1186L0.151899 28.9068L0 29.2881L0.379747 29.5169C1.44304 30.1271 2.60759 30.5847 3.82278 30.8898C5.03797 31.1949 6.43038 31.3475 7.92405 31.3475C9.44304 31.3475 10.7848 31.0678 11.8481 30.483C12.9367 29.9237 13.8228 29.0847 14.5063 27.9915C15.1646 26.9237 15.6456 25.6017 15.9494 24.0508C16.2278 22.5254 16.3797 20.7712 16.3797 18.8136L16.3544 13.5763V13.0678H15.8481H10.0759H9.56962V13.5763V13.983C9.46835 13.9068 9.36709 13.8305 9.24051 13.7542C8.86076 13.5 8.37975 13.2966 7.8481 13.1441C7.31646 13.0169 6.68354 12.9407 5.94937 12.9407Z" fill="#ED4E51"/>
<path d="M34.3033 27.0508C35.7463 27.0508 36.7843 27.5338 37.4425 28.4745C38.1007 29.4152 38.4299 30.8643 38.4299 32.7965V38.7203H32.759V32.8728C32.759 32.161 32.683 31.6525 32.5564 31.322C32.4299 30.9915 32.1514 30.8389 31.7463 30.8389C31.3413 30.8389 31.0628 31.0423 30.9615 31.4491C30.8349 31.8559 30.7843 32.4915 30.7843 33.3813V38.7457H25.1134V32.8982C25.1134 32.1864 25.0628 31.6779 24.9362 31.3474C24.8096 31.0169 24.5564 30.8643 24.1514 30.8643C23.7463 30.8643 23.4678 31.0677 23.3666 31.4745C23.24 31.8813 23.1894 32.5169 23.1894 33.4067V38.7711H17.8223V27.2287H23.5944V27.661C23.2653 28.0169 23.0121 28.4491 22.7843 28.9321C22.5564 29.4152 22.3792 29.9491 22.2526 30.5084C22.1261 31.0677 22.0248 31.6525 21.9488 32.2626C21.8982 32.8728 21.8476 33.483 21.8476 34.0677H22.5311C22.5311 33.3304 22.5818 32.5423 22.683 31.7287C22.7843 30.9152 22.9868 30.1525 23.2653 29.466C23.5438 28.7796 23.9742 28.1948 24.5058 27.7626C25.0375 27.305 25.7716 27.1016 26.6577 27.1016C28.3792 27.1016 29.5438 27.7881 30.1514 29.1355C29.8729 29.822 29.6704 30.5084 29.5438 31.2457C29.4172 31.983 29.3666 32.9237 29.3666 34.0677H30.0248C30.0248 33.3304 30.0754 32.5677 30.1514 31.7542C30.2273 30.9406 30.4299 30.1779 30.7337 29.4915C31.0375 28.805 31.4678 28.2203 32.0248 27.7881C32.5818 27.2796 33.3413 27.0508 34.3033 27.0508Z" fill="white"/>
<path d="M7.94892 19.8306C8.25272 19.8306 8.5312 19.7543 8.80968 19.6272C9.08816 19.5001 9.31601 19.3221 9.49323 19.0933C9.69576 18.8645 9.84766 18.5848 9.94892 18.2797C10.0755 17.9746 10.1261 17.6187 10.1261 17.2628C10.1261 16.9323 10.0755 16.6017 9.97424 16.2967C9.87297 15.9916 9.72107 15.7373 9.51854 15.5085C9.31601 15.2797 9.08816 15.1017 8.835 14.9746C8.58183 14.8475 8.30335 14.7712 7.97424 14.7712C7.69576 14.7712 7.41728 14.8475 7.1388 14.9746C6.88563 15.1017 6.65778 15.2797 6.45525 15.5085C6.25272 15.7373 6.10082 15.9916 5.99956 16.2967C5.89829 16.6017 5.84766 16.9323 5.84766 17.2882C5.84766 18.0001 6.05019 18.5848 6.45525 19.0933C6.835 19.5763 7.34133 19.8306 7.94892 19.8306Z" fill="#ED4E51"/>
<path d="M10.2278 11.6949V10.8305C10.5062 10.3475 10.6835 9.83898 10.7594 9.33051C10.81 8.82203 10.8607 8.38983 10.8607 8.0339H10.1771C10.1265 9.30509 9.77207 10.2712 9.08852 10.9576C8.40498 11.6441 7.41763 12 6.10118 12C5.44295 12 4.88599 11.8983 4.40498 11.7203C3.92396 11.5169 3.5189 11.2627 3.2151 10.9576C2.91131 10.6525 2.68346 10.2966 2.53156 9.91525C2.37966 9.5339 2.30371 9.17797 2.30371 8.79661C2.30371 8.05932 2.43029 7.42373 2.70877 6.91525C2.98726 6.38136 3.34169 5.97458 3.79738 5.64407C4.25308 5.31356 4.81004 5.08475 5.41763 4.9322C6.05055 4.77966 6.73409 4.72881 7.46827 4.72881C8.07586 4.75424 8.58219 4.83051 9.01257 5.00847C9.44295 5.18644 9.74675 5.41525 9.92396 5.69492H10.6328C10.5062 5.28814 10.3037 4.98305 10.0759 4.72881C9.84801 4.47458 9.59485 4.29661 9.29105 4.14407C8.98726 4.01695 8.65814 3.91525 8.30371 3.86441C7.94928 3.81356 7.59485 3.78814 7.2151 3.78814C6.53156 3.78814 5.87333 3.86441 5.24042 4.04237C4.60751 4.22034 4.05055 4.44915 3.5189 4.70339L2.45561 1.34746C4.25308 0.457627 6.37966 0 8.88599 0C9.92396 0 10.886 0.101695 11.7214 0.330508C12.5822 0.533898 13.3164 0.864407 13.924 1.32203C14.5316 1.77966 15.0126 2.33898 15.3417 3.02542C15.6708 3.71186 15.8227 4.55085 15.8227 5.51695V11.6949H10.2278Z" fill="white"/>
<path d="M9.87329 6.96608C9.87329 6.61014 9.74671 6.27964 9.49355 6.0254C9.24038 5.77116 8.93659 5.64404 8.55684 5.64404C8.20241 5.64404 7.87329 5.77116 7.64545 6.0254C7.39228 6.27964 7.29102 6.58472 7.29102 6.96608C7.29102 7.34743 7.4176 7.65252 7.64545 7.88133C7.89861 8.13557 8.20241 8.23726 8.55684 8.23726C8.91127 8.23726 9.24038 8.11014 9.49355 7.88133C9.74671 7.62709 9.87329 7.32201 9.87329 6.96608Z" fill="#ED4E51"/>
<path d="M26.6588 0.0253906C28.1018 0.0253906 29.1398 0.508441 29.798 1.44912C30.4562 2.3898 30.7853 3.83895 30.7853 5.77115V11.6949H25.1398V5.84742C25.1398 5.13556 25.0638 4.62709 24.9372 4.29658C24.8107 3.96607 24.5322 3.81353 24.1524 3.81353C23.7474 3.81353 23.4689 4.01692 23.3676 4.4237C23.241 4.83048 23.1904 5.46607 23.1904 6.3559V11.6949H17.8486V0.152509H23.6208V0.584713C23.0638 1.22031 22.6081 2.05929 22.3043 3.07624C22.0005 4.09319 21.8486 5.3898 21.8486 6.99149H22.4309C22.4309 6.2542 22.4815 5.46607 22.6081 4.65251C22.7347 3.83895 22.9372 3.07624 23.241 2.3898C23.5448 1.70336 23.9752 1.11861 24.5322 0.686408C25.0638 0.254204 25.7727 0.0253906 26.6588 0.0253906Z" fill="white"/>
<path d="M32.7851 25.1441C32.7851 23.2882 32.7851 21.356 32.7851 19.3729C32.7851 17.3899 32.7851 15.4577 32.7598 13.6017H38.5319V14.2119C38.0003 15.2034 37.6205 16.1695 37.3927 17.1611C37.1395 18.1526 37.0382 19.2458 37.0382 20.4661H37.6965C37.6965 19.7797 37.7724 19.017 37.9243 18.2034C38.0762 17.3899 38.3294 16.6272 38.7091 15.9407C39.0636 15.2543 39.5699 14.6695 40.1775 14.1865C40.7851 13.7288 41.5699 13.4746 42.4813 13.4746V18.2288C42.0256 18.2288 41.5952 18.2797 41.1395 18.4068C40.6838 18.5339 40.2788 18.7373 39.9243 18.9916C39.5699 19.2712 39.2661 19.6017 39.0129 20.0339C38.7851 20.4661 38.6585 20.9746 38.6585 21.5848V25.1441H32.7851Z" fill="white"/>
</g>
<defs>
<clipPath id="clip0_46_932">
<rect width="46" height="39" fill="white"/>
</clipPath>
</defs>
</svg>
