<svg width="32" height="32" viewBox="0 0 32 32" fill="none" xmlns="http://www.w3.org/2000/svg">
<path d="M11.1997 7C7.49186 7 4.33301 9.7724 4.33301 13.3731C4.33301 15.857 5.49614 17.9482 7.03766 19.6806C8.57389 21.4069 10.5559 22.856 12.3476 24.0689L15.4391 26.1615C15.7777 26.3906 16.2217 26.3906 16.5602 26.1615L19.6517 24.0689C21.4435 22.856 23.4255 21.4069 24.9617 19.6806C26.5032 17.9482 27.6663 15.857 27.6663 13.3731C27.6663 9.7724 24.5075 7 20.7997 7C18.8884 7 17.2066 7.89618 15.9997 9.05578C14.7928 7.89619 13.111 7 11.1997 7Z" fill="white"/>
</svg>
