<svg width="24" height="24" viewBox="0 0 24 24" fill="none" xmlns="http://www.w3.org/2000/svg">
<path fill-rule="evenodd" clip-rule="evenodd" d="M11.4898 5.23938C8.68914 3.55896 5.26388 3.2845 2.23133 4.49752C1.78963 4.6742 1.5 5.102 1.5 5.57772V17.2366C1.5 18.0176 2.28876 18.5516 3.01387 18.2615C5.49721 17.2682 8.30215 17.493 10.5956 18.869L11.7309 19.5502C11.8175 19.6022 11.9101 19.6249 12 19.6233C12.0899 19.6249 12.1825 19.6022 12.2691 19.5502L13.4044 18.869C15.6979 17.493 18.5028 17.2682 20.9861 18.2615C21.7112 18.5516 22.5 18.0176 22.5 17.2366V5.57772C22.5 5.102 22.2104 4.6742 21.7687 4.49752C18.7361 3.2845 15.3109 3.55896 12.5102 5.23938L12 5.54548L11.4898 5.23938ZM12.75 7.62857C12.75 7.21436 12.4142 6.87857 12 6.87857C11.5858 6.87857 11.25 7.21436 11.25 7.62857V17.1286C11.25 17.5428 11.5858 17.8786 12 17.8786C12.4142 17.8786 12.75 17.5428 12.75 17.1286V7.62857Z" fill="#C6C6C6"/>
</svg>
