<svg width="24" height="24" viewBox="0 0 24 24" fill="none" xmlns="http://www.w3.org/2000/svg">
<path d="M11.75 3.75C9.61212 3.75 7.87903 5.38012 7.87903 7.39099C7.87903 9.40185 9.61212 11.032 11.75 11.032C13.8879 11.032 15.621 9.40185 15.621 7.39099C15.621 5.38012 13.8879 3.75 11.75 3.75Z" fill="#C6C6C6"/>
<path d="M7.62097 12.9738C5.48309 12.9738 3.75 14.604 3.75 16.6148V17.7686C3.75 18.4999 4.31349 19.1235 5.08086 19.2413C9.49771 19.9196 14.0023 19.9196 18.4191 19.2413C19.1865 19.1235 19.75 18.4999 19.75 17.7686V16.6148C19.75 14.604 18.0169 12.9738 15.879 12.9738H15.5272C15.3367 12.9738 15.1475 13.0022 14.9664 13.0578L14.073 13.3322C12.5636 13.7958 10.9364 13.7958 9.42699 13.3322L8.53356 13.0578C8.35252 13.0022 8.16328 12.9738 7.97283 12.9738H7.62097Z" fill="#C6C6C6"/>
</svg>
