<svg width="24" height="24" viewBox="0 0 24 24" fill="none" xmlns="http://www.w3.org/2000/svg">
<path fill-rule="evenodd" clip-rule="evenodd" d="M14.6193 14.9209C11.9918 17.0253 8.14572 16.8597 5.71004 14.424C3.09665 11.8106 3.09665 7.57344 5.71004 4.96005C8.32344 2.34665 12.5606 2.34665 15.174 4.96005C17.6097 7.39572 17.7753 11.2418 15.6709 13.8693L20.7822 18.9807C21.0726 19.271 21.0726 19.7418 20.7822 20.0322C20.4918 20.3226 20.021 20.3226 19.7307 20.0322L14.6193 14.9209ZM6.76159 13.3724C4.72895 11.3398 4.72895 8.04423 6.76159 6.01159C8.79423 3.97895 12.0898 3.97895 14.1224 6.01159C16.1536 8.04274 16.1551 11.335 14.1269 13.368C14.1254 13.3694 14.1239 13.3709 14.1224 13.3724C14.1209 13.3739 14.1194 13.3754 14.118 13.3769C12.085 15.4051 8.79274 15.4036 6.76159 13.3724Z" fill="#C6C6C6"/>
</svg>
