<svg width="32" height="32" viewBox="0 0 32 32" fill="none" xmlns="http://www.w3.org/2000/svg">
<path fill-rule="evenodd" clip-rule="evenodd" d="M25.047 26.4918L25.0479 26.4896L25.0707 26.4322L29 6.48544V6.42065C29 5.92367 28.8176 5.4898 28.4208 5.22955C28.0734 5.00176 27.6741 4.98554 27.3941 5.00694C27.0979 5.02957 26.8187 5.104 26.6253 5.16595C26.5259 5.19783 26.4426 5.22854 26.3831 5.25177C26.3532 5.26343 26.329 5.27332 26.3114 5.28069L26.2941 5.28802L4.38633 13.9413L4.3803 13.9435C4.36847 13.9478 4.35282 13.9537 4.33392 13.9611C4.29625 13.9758 4.24496 13.997 4.18472 14.0245C4.06642 14.0785 3.90298 14.1618 3.73723 14.276C3.45571 14.4702 2.91965 14.9297 3.01017 15.6583C3.08514 16.2617 3.49828 16.645 3.77681 16.8434C3.92611 16.9498 4.06895 17.0265 4.17355 17.0766C4.22655 17.102 4.27157 17.1215 4.30509 17.1352C4.3219 17.1421 4.33596 17.1476 4.34683 17.1518L4.36075 17.157L4.36965 17.1604L8.20256 18.4596C8.18963 18.7018 8.21348 18.9486 8.27725 19.1922L10.1972 26.5255C10.4248 27.395 11.2061 28.0007 12.0991 28C12.8996 27.9994 13.6096 27.5118 13.9112 26.7843L16.9087 23.5572L22.0568 27.5313L22.13 27.5634C22.5977 27.7689 23.0347 27.834 23.4343 27.7791C23.8332 27.7242 24.1503 27.5558 24.3884 27.3639C24.6228 27.1751 24.7834 26.962 24.8844 26.8016C24.9357 26.7201 24.974 26.6485 25.0005 26.5946C25.0139 26.5675 25.0244 26.5446 25.0322 26.5267L25.0421 26.5038L25.0456 26.4953L25.047 26.4918ZM10.1777 18.6878C10.1341 18.5211 10.2026 18.3452 10.3471 18.2528L23.3478 9.93991C23.3478 9.93991 24.1124 9.47249 24.0851 9.93991C24.0851 9.93991 24.2216 10.0225 23.8118 10.4073C23.4232 10.7729 14.5459 19.4026 13.6476 20.2758C13.5958 20.3262 13.5648 20.384 13.5466 20.4542L12.0976 26.021L10.1777 18.6878Z" fill="white"/>
</svg>
