<svg width="32" height="32" viewBox="0 0 32 32" fill="none" xmlns="http://www.w3.org/2000/svg">
<path d="M28.9748 8.00968C29.0521 7.90053 28.938 7.75962 28.8144 7.80816C27.9364 8.15318 27.0187 8.38596 26.0827 8.50067C27.1249 7.86947 27.9292 6.90862 28.3752 5.77106C28.4206 5.65517 28.2958 5.55169 28.1881 5.61197C27.2194 6.15428 26.1747 6.54478 25.0895 6.76968C25.044 6.7791 24.9972 6.76342 24.9653 6.72931C24.1509 5.85819 23.0789 5.27818 21.9102 5.07775C20.717 4.87311 19.4905 5.07574 18.4232 5.65384C17.3558 6.23195 16.5079 7.15284 16.0124 8.27209C15.5414 9.33628 15.4142 10.5226 15.6466 11.6618C15.6646 11.7502 15.5964 11.8337 15.5075 11.8281C13.396 11.6951 11.333 11.1258 9.44547 10.1544C7.56277 9.18547 5.8956 7.83751 4.54547 6.19368C4.48555 6.12072 4.37199 6.13016 4.32833 6.21415C3.90822 7.02228 3.68826 7.92302 3.68886 8.83848C3.68715 9.74974 3.90775 10.6473 4.33102 11.4512C4.75429 12.2551 5.36708 12.9405 6.11485 13.4462C5.32184 13.4244 4.54428 13.2256 3.83715 12.8653C3.74602 12.8189 3.6367 12.885 3.64144 12.9883C3.69659 14.1898 4.13174 15.3962 4.88495 16.3217C5.68648 17.3065 6.799 17.9806 8.03432 18.2297C7.55879 18.3764 7.06509 18.4537 6.56806 18.4594C6.29755 18.4562 6.02756 18.4359 5.75966 18.3988C5.66033 18.385 5.57922 18.4807 5.614 18.576C5.98245 19.5861 6.63337 20.4674 7.48924 21.1107C8.40425 21.7986 9.50801 22.1801 10.6469 22.2023C8.72373 23.7364 6.3493 24.5736 3.90213 24.5805C3.65068 24.5814 3.39933 24.5731 3.14858 24.5558C3.00728 24.546 2.94229 24.7369 3.06409 24.8102C5.44845 26.2445 8.17373 27.0027 10.9535 26.9993C13.0059 27.0209 15.0419 26.6277 16.9427 25.8427C18.8435 25.0577 20.5709 23.8967 22.024 22.4273C23.4772 20.958 24.627 19.2099 25.4063 17.285C26.1855 15.3602 26.5786 13.2972 26.5625 11.2167V10.5683C26.5625 10.5257 26.5824 10.4855 26.616 10.4598C27.5201 9.76779 28.3152 8.94159 28.9748 8.00968Z" fill="white"/>
</svg>
