<svg width="32" height="32" viewBox="0 0 32 32" fill="none" xmlns="http://www.w3.org/2000/svg">
<path d="M28.874 23.998H25.8089C24.6492 23.998 24.3005 23.0948 22.2206 21.0944C20.4055 19.4113 19.6387 19.2011 19.1786 19.2011C18.5442 19.2011 18.3698 19.3688 18.3698 20.2114V22.8624C18.3698 23.5797 18.1282 24 16.1807 24C14.2907 23.8778 12.4579 23.3256 10.8332 22.3886C9.20857 21.4517 7.83861 20.157 6.83615 18.6111C4.45624 15.7621 2.8003 12.4183 2 8.84561C2 8.4031 2.17437 8.00303 3.05042 8.00303H6.11346C6.90127 8.00303 7.18489 8.34046 7.49371 9.11839C8.98111 13.3293 11.5189 16.9906 12.5483 16.9906C12.9433 16.9906 13.1156 16.8229 13.1156 15.8752V11.539C12.9853 9.5609 11.8929 9.39319 11.8929 8.6779C11.9069 8.48924 11.9968 8.31325 12.1435 8.18726C12.2902 8.06127 12.4821 7.99519 12.6786 8.00303H17.4937C18.1513 8.00303 18.3698 8.31824 18.3698 9.07596V14.9276C18.3698 15.56 18.6534 15.7702 18.8509 15.7702C19.2458 15.7702 19.5505 15.56 20.2732 14.8649C21.8254 13.0443 23.0936 11.0159 24.0379 8.84359C24.1344 8.58266 24.317 8.35926 24.5579 8.20749C24.7988 8.05572 25.0846 7.98392 25.3719 8.00303H28.437C29.3551 8.00303 29.5505 8.44553 29.3551 9.07596C28.2406 11.4773 26.8616 13.7567 25.2417 15.8752C24.9118 16.3602 24.7795 16.6127 25.2417 17.1805C25.5463 17.623 26.6198 18.4858 27.3425 19.3062C28.3927 20.3137 29.2648 21.4795 29.9244 22.7573C30.187 23.5777 29.748 23.998 28.874 23.998Z" fill="white"/>
</svg>
