<svg width="32" height="32" viewBox="0 0 32 32" fill="none" xmlns="http://www.w3.org/2000/svg">
<path fill-rule="evenodd" clip-rule="evenodd" d="M8.81148 7.25453C13.2637 6.91516 17.7363 6.91516 22.1885 7.25453L25.1793 7.4825C26.8451 7.60948 28.2079 8.82591 28.4833 10.4317C29.1722 14.4494 29.1722 18.5506 28.4833 22.5683C28.2079 24.1741 26.8451 25.3905 25.1793 25.5175L22.1885 25.7455C17.7363 26.0848 13.2637 26.0848 8.81147 25.7455L5.82075 25.5175C4.1549 25.3905 2.79212 24.1741 2.51675 22.5683C1.82775 18.5506 1.82775 14.4494 2.51675 10.4317C2.79212 8.82591 4.1549 7.60948 5.82075 7.4825L8.81148 7.25453ZM12.8305 19.7123V13.2877C12.8305 12.9845 13.17 12.7972 13.4369 12.9532L18.9319 16.1655C19.1911 16.317 19.1911 16.683 18.9319 16.8345L13.4369 20.0468C13.17 20.2028 12.8305 20.0155 12.8305 19.7123Z" fill="white"/>
</svg>
